# xmcd CD database file generated by MAGIX_Freedb v0.9beta0
# 
# Track frame offsets:
#      183
#      17433
#      29358
# 
# Disc length: 562 seconds
# 
# Revision: 0 
# Processed by: cddbd v1.5.2PL0 Copyright (c) Steve Scherf et al.
# Submitted via: MAGIX_Freedb v0.9beta0
# 
DISCID=16023003
DTITLE=The Notting Hillbillies - Your own sweet way
DYEAR=1990
DGENRE=
TTITLE0=The Notting Hillbillies - Your own sweet way
TTITLE1=The Notting Hillbillies - Bewildered
TTITLE2=The Notting Hillbillies - That's where I belong
EXTD=
EXTT0=
EXTT1=
EXTT2=
PLAYORDER=
